<?xml version="1.0" encoding="UTF-8"?>
<svg width="705px" height="678px" viewBox="0 0 705 678" version="1.1" xmlns="http://www.w3.org/2000/svg" xmlns:xlink="http://www.w3.org/1999/xlink">
    <!-- Generator: Sketch 51.1 (57501) - http://www.bohemiancoding.com/sketch -->
    <title>Artboard</title>
    <desc>Created with Sketch.</desc>
    <defs></defs>
    <g id="Artboard" stroke="none" stroke-width="1" fill="none" fill-rule="evenodd">
        <path d="M474.271916,436.506127 C467.334872,434.873553 461.112936,435.895286 455.604107,439.566328 C450.095278,443.237369 446.524741,448.335038 444.892496,454.863334 C443.668311,460.980737 441.832035,466.895192 439.383667,472.606701 C434.078868,486.881974 426.631748,499.935566 417.042305,511.764477 C407.452862,523.593388 396.434204,533.791726 383.989332,542.356489 C371.543459,550.922253 357.873402,557.551522 342.979161,562.244297 C328.08492,566.932073 312.680602,569.27946 296.766208,569.27946 C275.955077,569.27946 256.36813,565.405471 238.005367,557.655495 C219.642604,549.903519 203.626194,539.504234 189.956137,526.450642 C176.28608,513.395051 165.472453,497.999071 157.515256,480.257703 C149.558059,462.514336 145.57946,443.443316 145.57946,423.047641 C145.57946,407.955582 147.925813,393.373389 152.618519,379.301063 C157.311225,365.228738 163.942223,352.175146 172.511512,340.143287 C181.080802,328.109429 191.282336,317.504198 203.116117,308.326595 C214.949898,299.148991 228.211893,291.704935 242.902103,285.994426 C249.431086,283.954958 254.123792,279.876023 256.980222,273.757621 C259.836651,267.639218 260.040682,261.520816 257.592314,255.402413 C255.143945,249.284011 250.757285,244.899156 244.432334,242.247848 C238.107382,239.59654 231.680415,239.29062 225.151433,241.330087 C205.972547,248.67217 188.425907,258.461614 172.511512,270.698419 C156.597118,282.935224 142.927061,297.00755 131.501342,312.915397 C120.075622,328.823243 111.302302,346.156717 105.181381,364.921818 C99.0604605,383.683919 96,403.05786 96,423.046641 C96,449.969612 101.304798,475.154036 111.914395,498.608912 C122.523991,522.061788 136.908155,542.558437 155.066887,560.098857 C173.22562,577.637278 194.444812,591.506656 218.724466,601.702994 C243.004119,611.901331 269.018033,617 296.766208,617 C317.985401,617 338.388471,613.939799 357.975418,607.822396 C377.561365,601.702994 395.720097,593.035257 412.451614,581.819186 C429.181132,570.603114 443.872342,557.038656 456.520245,541.130809 C469.170148,525.222963 478.963622,507.684542 485.900666,488.513548 C488.758096,481.576359 491.205464,473.828382 493.245771,465.263618 C494.880017,458.327429 493.857863,452.208027 490.18531,446.907411 C486.512758,441.608795 481.20996,438.138701 474.271916,436.506127 Z" id="wheel" fill="#3344CC" fill-rule="nonzero"></path>
        <circle id="head" fill="#3344CC" fill-rule="nonzero" cx="305" cy="101" r="57"></circle>
        <path d="M537.632418,370.942385 L628.950577,529.110076 C637.242108,543.471429 632.321545,561.83522 617.960192,570.126751 C603.598839,578.418282 585.235048,573.497719 576.943517,559.136366 L493.033901,413.800648 L364.981714,413.800648 C364.887753,413.800648 364.79388,413.800272 364.700095,413.799522 C363.315411,414.208094 361.898834,414.554758 360.452851,414.835829 L359.089121,415.100911 C334.421854,419.895742 310.538106,403.78595 305.743275,379.118684 L275.872769,225.448255 C271.077938,200.780988 287.18773,176.89724 311.854997,172.102409 L313.218727,171.837326 C337.885994,167.042495 361.769742,183.152287 366.564573,207.819554 L372.222259,236.925822 L466.640416,236.925822 C479.885876,236.925822 490.623443,247.663389 490.623443,260.908849 C490.623443,274.15431 479.885876,284.891877 466.640416,284.891877 L381.545915,284.891877 L393.200486,344.849445 L504.183041,344.849445 C520.332243,344.849445 533.888047,355.953103 537.632418,370.942385 Z" id="body" fill="#3344CC" fill-rule="nonzero"></path>
    </g>
</svg>