<?xml version="1.0" encoding="UTF-8"?>
<svg width="569px" height="375px" viewBox="0 0 569 375" version="1.1" xmlns="http://www.w3.org/2000/svg" xmlns:xlink="http://www.w3.org/1999/xlink">
    <!-- Generator: Sketch 51.1 (57501) - http://www.bohemiancoding.com/sketch -->
    <title>Artboard</title>
    <desc>Created with Sketch.</desc>
    <defs></defs>
    <g id="Artboard" stroke="none" stroke-width="1" fill="none" fill-rule="evenodd">
        <path d="M462.666048,246 L57.3329524,246 C54.4999587,246 51.7909648,247.12061 49.7909692,249.112805 C48.3749724,250.513318 36,263.566182 36,288.489541 C36,313.433818 48.3749724,326.486682 49.7919692,327.887195 C51.7919648,329.87939 54.4999587,331 57.3339524,331 L462.666048,331 C465.499041,331 468.208035,329.87939 470.208031,327.887195 C471.625028,326.486682 484,313.433818 484,288.489541 C484,263.566182 471.625028,250.513318 470.208031,249.112805 C468.207035,247.12061 465.499041,246 462.666048,246 Z M62.6769405,309.750249 C60.4169455,305.993965 57.3329524,298.948566 57.3329524,288.489541 C57.3329524,278.020555 60.4369455,270.964199 62.6559405,267.249751 L135.701777,267.249751 C133.677782,273.065965 131.999786,279.79062 131.999786,288.489541 C131.999786,297.199419 133.679782,303.929054 135.703777,309.750249 L62.6769405,309.750249 Z M158.796726,309.750249 C156.525731,306.079629 153.332738,299.253372 153.332738,288.489541 C153.332738,277.704792 156.543731,270.870566 158.777726,267.249751 L434.369111,267.249751 C432.344115,273.065965 430.665119,279.79062 430.665119,288.489541 C430.665119,297.199419 432.345115,303.929054 434.369111,309.750249 L158.796726,309.750249 Z M457.390059,309.620756 C455.122064,305.916269 451.999071,299.140813 451.999071,288.489541 C451.999071,277.803405 455.147064,271.015 457.381059,267.36231 C459.636054,271.141504 462.666048,278.136102 462.666048,288.489541 C462.666048,298.849953 459.645054,305.838574 457.390059,309.620756 Z" id="body" fill="#3344CC" fill-rule="nonzero"></path>
        <path d="M505.272454,97 L355.727546,97 C343.950858,97 334.364274,87.427 334.364274,75.667 C334.364274,63.907 343.950858,54.334 355.727546,54.334 L494.591319,54.334 C500.495685,54.334 505.273456,49.563 505.273456,43.667 C505.273456,37.771 500.495685,33 494.591319,33 L355.727546,33 C332.163155,33 313,52.135 313,75.667 C313,99.199 332.163155,118.333 355.727546,118.333 L505.272454,118.333 C517.049142,118.333 526.635726,127.906 526.635726,139.666 C526.635726,151.426 517.049142,160.999 505.272454,160.999 L483.909182,160.999 C460.344791,160.999 441.181636,180.134 441.181636,203.666 L441.181636,214.333 C441.181636,220.229 445.959406,225 451.863773,225 C457.76814,225 462.54591,220.229 462.54591,214.333 L462.54591,203.666 C462.54591,191.906 472.132494,182.333 483.909182,182.333 L505.272454,182.333 C528.837847,182.333 548,163.198 548,139.666 C548,116.134 528.837847,97 505.272454,97 Z" id="smoke" fill="#3344CC" fill-rule="nonzero"></path>
    </g>
</svg>